<?xml version="1.0" encoding="utf-8"?>
<!-- Generator: Adobe Illustrator 16.2.0, SVG Export Plug-In . SVG Version: 6.00 Build 0)  -->
<!DOCTYPE svg PUBLIC "-//W3C//DTD SVG 1.1//EN" "http://www.w3.org/Graphics/SVG/1.1/DTD/svg11.dtd">
<svg version="1.1" xmlns="http://www.w3.org/2000/svg" xmlns:xlink="http://www.w3.org/1999/xlink" x="0px" y="0px" width="750px"
	 height="270px" viewBox="0 0 750 270" enable-background="new 0 0 750 270" xml:space="preserve">
<g id="текст" display="none">
	<text transform="matrix(1 0 0 1 137.9883 46.498)" display="inline"><tspan x="0" y="0" font-family="'MinionPro-Regular'" font-size="72" letter-spacing="15">Семейный </tspan><tspan x="0" y="100" font-family="'MinionPro-Regular'" font-size="72" letter-spacing="15">лѣтописецъ</tspan></text>
	<rect x="134" y="27.5" display="inline" fill="none" width="6" height="0"/>
</g>
<g id="Layer_2" display="none">
	<text transform="matrix(1 0 0 1 50.5039 108.001)" display="inline"><tspan x="0" y="0" font-family="'MinionPro-Regular'" font-size="72" letter-spacing="15">Семейный </tspan><tspan x="0" y="100" font-family="'MinionPro-Regular'" font-size="72" letter-spacing="15">лѣтописецъ</tspan></text>
	<rect x="4.5" y="4" fill="none" stroke="#000000" stroke-linejoin="bevel" stroke-miterlimit="10" width="741" height="262"/>
</g>
<g id="Layer_3" display="none">
	<path display="inline" fill="none" stroke="#000000" stroke-linejoin="bevel" stroke-miterlimit="10" d="M745.5,256.726
		c0,5.122-4.335,9.274-10.241,9.274H15.194C9.288,266,4.5,261.848,4.5,256.726V13.274C4.5,8.152,9.288,4,15.194,4h720.065
		c5.906,0,10.241,4.152,10.241,9.274V256.726z"/>
	<path display="inline" fill="none" stroke="#000000" stroke-linejoin="bevel" stroke-miterlimit="10" d="M745.5,256.726
		c0,5.122-4.335,9.274-10.241,9.274H15.194C9.288,266,4.5,261.848,4.5,256.726V13.274C4.5,8.152,9.288,4,15.194,4h720.065
		c5.906,0,10.241,4.152,10.241,9.274V256.726z"/>
</g>
<g id="вектор">
	<path fill="none" stroke="#000000" stroke-linejoin="bevel" stroke-miterlimit="10" d="M745.5,256.726
		c0,5.122-4.335,9.274-10.241,9.274H15.194C9.288,266,4.5,261.848,4.5,256.726V13.274C4.5,8.152,9.288,4,15.194,4h720.065
		c5.906,0,10.241,4.152,10.241,9.274V256.726z"/>
	<g>
		<path d="M96.804,96.12c-1.008,3.312-2.808,8.641-4.104,11.017c-2.016,0.504-8.065,1.944-13.25,1.944
			c-17.929,0-25.778-12.385-25.778-23.834c0-15.122,11.665-25.13,27.722-25.13c5.833,0,10.729,1.584,12.745,1.944
			c0.576,4.104,1.008,6.984,1.44,10.873l-2.16,0.504c-1.872-7.633-6.192-10.729-13.969-10.729
			c-12.025,0-18.434,10.153-18.434,21.098c0,13.465,7.921,22.682,18.866,22.682c7.345,0,11.233-3.96,14.833-11.161L96.804,96.12z"/>
		<path d="M153.539,96.624c-0.432,2.376-1.872,9.145-2.52,11.377h-34.707v-2.016c6.552-0.504,7.128-1.08,7.128-6.913V70.414
			c0-6.48-0.576-6.696-6.192-7.201v-2.016h32.115c0,1.8,0.36,6.697,0.576,10.369l-2.088,0.36c-0.648-3.024-1.368-4.608-2.304-6.192
			c-1.008-1.512-2.952-2.016-8.137-2.016h-5.473c-2.232,0-2.376,0.144-2.376,2.304v16.345h6.769c6.48,0,6.84-0.576,7.777-5.4h2.088
			v13.825h-2.088c-0.937-5.185-1.44-5.617-7.705-5.617h-6.84v13.609c0,3.384,0.432,4.896,1.728,5.833
			c1.368,0.864,3.888,0.936,7.489,0.936c5.472,0,7.489-0.576,9.073-2.448c1.224-1.44,2.592-3.888,3.528-6.769L153.539,96.624z"/>
		<path d="M214.019,108.001v-2.016c5.833-0.576,6.121-0.936,6.049-8.569l-0.216-29.378h-0.288l-17.569,39.459h-1.44l-16.129-38.452
			h-0.144l-1.08,20.522c-0.288,5.904-0.288,9.073-0.216,11.953c0.144,3.456,1.872,3.96,6.625,4.464v2.016h-16.777v-2.016
			c4.176-0.504,5.617-1.296,6.121-4.32c0.36-2.521,0.792-5.688,1.368-13.177l1.008-14.978c0.648-9.36,0.288-9.648-6.265-10.297
			v-2.016h11.809L203.29,97.2l16.634-36.003h12.241v2.016c-6.336,0.576-6.84,0.72-6.625,8.137l0.72,26.066
			c0.216,7.633,0.432,7.993,6.697,8.569v2.016H214.019z"/>
		<path d="M290.266,96.624c-0.432,2.376-1.872,9.145-2.52,11.377h-34.707v-2.016c6.552-0.504,7.128-1.08,7.128-6.913V70.414
			c0-6.48-0.576-6.696-6.192-7.201v-2.016h32.115c0,1.8,0.36,6.697,0.576,10.369l-2.088,0.36c-0.648-3.024-1.368-4.608-2.304-6.192
			c-1.008-1.512-2.952-2.016-8.137-2.016h-5.473c-2.232,0-2.376,0.144-2.376,2.304v16.345h6.769c6.48,0,6.84-0.576,7.777-5.4h2.088
			v13.825h-2.088c-0.937-5.185-1.44-5.617-7.705-5.617h-6.84v13.609c0,3.384,0.432,4.896,1.728,5.833
			c1.368,0.864,3.888,0.936,7.489,0.936c5.472,0,7.489-0.576,9.073-2.448c1.224-1.44,2.592-3.888,3.528-6.769L290.266,96.624z"/>
		<path d="M340.593,108.001v-2.016c5.544-0.432,6.192-0.792,6.192-6.985V80.207c0-2.376,0-6.48,0.359-13.393h-0.287l-22.826,37.659
			c-0.576,0.864-0.648,1.8-0.648,2.736v0.792H310.71v-2.016c5.473-0.432,6.049-0.936,6.049-7.489v-28.73
			c0-5.688-0.576-6.121-6.049-6.553v-2.016h18.146v2.016c-5.4,0.432-6.121,0.864-6.121,6.481v17.569c0,3.313,0,7.057-0.287,14.185
			h0.144l22.61-37.155c0.647-1.008,0.792-1.728,0.792-2.376v-0.72h12.889v2.016c-5.473,0.432-6.12,1.008-6.12,7.417V99
			c0,6.193,0.647,6.553,6.12,6.985v2.016H340.593z M326.551,51.908c0-1.44,1.009-2.88,2.593-2.88c1.872,0,2.521,1.728,2.448,2.952
			c0,1.944,1.439,2.953,3.816,2.953c2.664,0,3.816-1.152,3.744-2.953c-0.072-1.512,0.792-2.952,2.592-2.952
			c1.585,0,2.593,1.368,2.593,2.88c0,3.456-3.601,5.833-8.929,5.833C329.936,57.741,326.551,55.364,326.551,51.908z"/>
		<path d="M430.162,63.213c-5.904,0.504-6.48,0.864-6.48,6.841v29.09c0,6.049,0.576,6.409,6.409,6.841v2.016h-19.298v-2.016
			c6.12-0.432,6.769-0.792,6.769-6.841V84.743h-24.555v14.401c0,5.977,0.576,6.409,6.481,6.841v2.016H380.55v-2.016
			c5.761-0.432,6.337-0.792,6.337-6.841v-29.09c0-6.048-0.576-6.336-6.48-6.841v-2.016h18.649v2.016
			c-5.473,0.504-6.049,0.864-6.049,6.841v11.665h24.555V70.054c0-5.977-0.576-6.336-6.192-6.841v-2.016h18.793V63.213z"/>
		<path d="M451.686,108.001v-2.016c5.473-0.432,6.049-0.864,6.049-7.057v-28.73c0-6.121-0.576-6.553-5.905-6.985v-2.016h18.362
			v2.016c-5.761,0.432-6.409,0.72-6.409,6.985v10.153c2.593-0.36,4.608-0.432,7.201-0.432c11.377,0,16.562,5.256,16.562,12.961
			c0,6.12-2.593,9.792-6.553,12.025c-3.744,2.232-8.497,3.096-14.113,3.096H451.686z M463.782,99.216
			c0,4.608,0.721,6.192,6.192,6.192c5.185,0,10.514-3.168,10.514-11.665c0-8.353-4.681-11.233-11.953-11.233
			c-1.944,0-3.24,0.144-4.753,0.288V99.216z M487.977,108.001v-2.016c5.473-0.36,6.049-1.152,6.049-6.913V70.054
			c0-5.617-0.576-6.409-6.049-6.841v-2.016h18.289v2.016c-5.544,0.432-6.12,1.152-6.12,6.841v29.019
			c0,5.833,0.576,6.553,6.049,6.913v2.016H487.977z"/>
		<path d="M557.888,108.001v-2.016c5.544-0.432,6.192-0.792,6.192-6.985V80.207c0-2.376,0-6.48,0.359-13.393h-0.287l-22.826,37.659
			c-0.576,0.864-0.648,1.8-0.648,2.736v0.792h-12.673v-2.016c5.473-0.432,6.049-0.936,6.049-7.489v-28.73
			c0-5.688-0.576-6.121-6.049-6.553v-2.016h18.146v2.016c-5.4,0.432-6.121,0.864-6.121,6.481v17.569c0,3.313,0,7.057-0.287,14.185
			h0.144l22.61-37.155c0.647-1.008,0.792-1.728,0.792-2.376v-0.72h12.889v2.016c-5.473,0.432-6.12,1.008-6.12,7.417V99
			c0,6.193,0.647,6.553,6.12,6.985v2.016H557.888z M543.846,51.908c0-1.44,1.009-2.88,2.593-2.88c1.872,0,2.521,1.728,2.448,2.952
			c0,1.944,1.439,2.953,3.816,2.953c2.664,0,3.816-1.152,3.744-2.953c-0.072-1.512,0.792-2.952,2.592-2.952
			c1.585,0,2.593,1.368,2.593,2.88c0,3.456-3.601,5.833-8.929,5.833C547.23,57.741,543.846,55.364,543.846,51.908z"/>
		<path d="M75.706,208.001v-2.016c5.4-0.432,5.977-0.792,5.977-7.057v-31.755c0-3.096,0-3.384-2.736-3.384h-7.489
			c-2.952,0-3.096,0.288-3.096,2.088c0,19.441-2.952,32.907-8.064,39.604c-1.872,2.52-3.672,3.6-5.185,3.6
			c-1.368,0-3.024-0.432-3.744-0.792v-1.296c3.6-2.232,5.616-4.536,7.488-7.92c3.24-5.473,6.121-15.985,6.121-31.107
			c0-3.744-1.224-4.392-6.984-4.752v-2.016h35.859v2.016c-5.472,0.432-6.048,1.008-6.048,6.337v29.378
			c0,6.265,0.576,6.625,6.048,7.057v2.016H75.706z"/>
		<path d="M136.978,182.151c2.016-0.216,4.32-0.36,6.408-0.36c11.233,0,16.273,4.537,16.273,12.241
			c0,5.185-2.448,8.857-6.553,11.161c-3.6,2.016-7.705,2.808-13.249,2.808h-15.265v-1.944c5.833-0.432,6.409-0.936,6.409-8.064
			v-27.074h-5.473c-4.896,0-5.977,0.792-7.057,2.592c-0.648,1.08-1.224,2.521-1.872,4.465h-2.088
			c0.216-3.024,0.72-7.633,0.864-11.305h1.368c0.936,1.656,1.512,1.8,3.456,1.8h10.801c0-4.752-0.72-4.969-5.545-5.329v-1.944
			h17.282v1.944c-5.185,0.36-5.76,0.72-5.76,5.329h12.097c1.656,0,2.521-0.432,3.384-1.8h1.368
			c0.072,3.024,0.432,8.281,0.792,11.089l-2.088,0.216c-0.576-2.161-1.296-3.672-2.088-4.969c-1.008-1.584-2.52-2.088-7.849-2.088
			h-5.616V182.151z M136.978,198.568c0,5.328,1.224,6.84,5.544,6.84c5.76-0.072,10.225-3.24,10.225-10.657
			c0-7.489-4.608-10.441-11.161-10.441c-1.656,0-3.168,0.072-4.608,0.288V198.568z"/>
		<path d="M218.771,172.358c-0.792-3.457-1.44-5.256-2.304-6.409c-1.152-1.728-2.376-2.232-7.777-2.232h-5.112v35.427
			c0,5.688,0.576,6.409,7.417,6.841v2.016h-20.666v-2.016c6.552-0.432,7.128-1.152,7.128-6.841v-35.427h-4.464
			c-5.977,0-7.417,0.576-8.353,2.232c-0.864,1.224-1.44,3.24-2.304,6.409h-2.088c0.36-4.32,0.72-9.001,0.864-12.961h1.44
			c1.008,1.656,1.944,1.8,3.96,1.8h28.442c1.944,0,2.52-0.432,3.672-1.8h1.512c0,3.312,0.36,8.568,0.72,12.745L218.771,172.358z"/>
		<path d="M288.755,184.023c0,15.553-10.873,25.058-24.05,25.058c-13.033,0-23.402-10.153-23.402-23.978
			c0-12.961,9.073-24.986,24.194-24.986C277.738,160.117,288.755,169.622,288.755,184.023z M248.647,183.087
			c0,13.537,7.417,23.402,17.57,23.402c7.993,0,15.193-6.696,15.193-20.521c0-15.193-7.921-23.258-17.354-23.258
			C255.992,162.709,248.647,169.622,248.647,183.087z"/>
		<path d="M339.009,208.001v-2.016c5.76-0.432,6.336-0.72,6.336-7.057V168.47c0-4.177-0.359-4.752-4.32-4.752h-13.609
			c-4.032,0-4.464,0.576-4.464,5.112v30.099c0,6.192,0.648,6.625,6.337,7.057v2.016h-18.722v-2.016
			c5.688-0.432,6.265-0.792,6.265-7.057V170.27c0-6.336-0.576-6.625-6.193-7.057v-2.016h47.093v2.016
			c-5.617,0.432-6.265,0.792-6.265,7.057v28.659c0,6.336,0.647,6.625,6.336,7.057v2.016H339.009z"/>
		<path d="M409.425,208.001v-2.016c5.544-0.432,6.192-0.792,6.192-6.985v-18.793c0-2.376,0-6.48,0.359-13.393h-0.287l-22.826,37.659
			c-0.576,0.864-0.648,1.8-0.648,2.736v0.792h-12.673v-2.016c5.473-0.432,6.049-0.936,6.049-7.489v-28.73
			c0-5.688-0.576-6.121-6.049-6.553v-2.016h18.146v2.016c-5.4,0.432-6.121,0.864-6.121,6.481v17.569c0,3.313,0,7.057-0.287,14.185
			h0.144l22.61-37.155c0.647-1.008,0.792-1.728,0.792-2.376v-0.72h12.889v2.016c-5.473,0.432-6.12,1.008-6.12,7.417V199
			c0,6.193,0.647,6.553,6.12,6.985v2.016H409.425z"/>
		<path d="M492.369,196.12c-1.008,3.312-2.808,8.641-4.104,11.017c-2.016,0.504-8.064,1.944-13.249,1.944
			c-17.93,0-25.778-12.385-25.778-23.834c0-15.122,11.665-25.13,27.723-25.13c5.833,0,10.729,1.584,12.745,1.944
			c0.576,4.104,1.008,6.984,1.44,10.873l-2.16,0.504c-1.872-7.633-6.192-10.729-13.97-10.729c-12.024,0-18.434,10.153-18.434,21.098
			c0,13.465,7.921,22.682,18.866,22.682c7.345,0,11.232-3.96,14.833-11.161L492.369,196.12z"/>
		<path d="M549.104,196.624c-0.432,2.376-1.872,9.145-2.521,11.377h-34.707v-2.016c6.553-0.504,7.129-1.08,7.129-6.913v-28.659
			c0-6.48-0.576-6.696-6.192-7.201v-2.016h32.114c0,1.8,0.36,6.697,0.576,10.369l-2.088,0.36c-0.648-3.024-1.368-4.608-2.305-6.192
			c-1.008-1.512-2.952-2.016-8.137-2.016h-5.472c-2.232,0-2.377,0.144-2.377,2.304v16.345h6.769c6.481,0,6.841-0.576,7.777-5.4
			h2.088v13.825h-2.088c-0.937-5.185-1.44-5.617-7.705-5.617h-6.841v13.609c0,3.384,0.433,4.896,1.729,5.833
			c1.368,0.864,3.889,0.936,7.488,0.936c5.473,0,7.489-0.576,9.073-2.448c1.224-1.44,2.592-3.888,3.528-6.769L549.104,196.624z"/>
		<path d="M615.272,220.098h-2.232l-0.792-6.409c-0.576-4.752-1.656-5.688-5.185-5.688h-37.803v-2.016
			c5.761-0.36,6.337-0.72,6.337-7.057v-28.947c0-5.904-0.576-6.408-6.265-6.84v-1.944h18.722v1.944
			c-5.688,0.432-6.337,0.936-6.337,6.84v29.811c0,4.968,0.576,5.616,5.328,5.616h11.81c4.68,0,5.328-0.36,5.328-5.256v-29.955
			c0-6.121-0.648-6.625-6.408-7.057v-1.944h18.649v1.944c-5.616,0.432-6.12,0.936-6.12,7.057v31.539
			c0,3.313,0.359,3.601,2.447,3.601h4.177L615.272,220.098z"/>
		<path d="M648.604,208.001v-2.016c5.545-0.432,6.193-0.792,6.193-6.697v-32.691c0-2.952,0-2.88-2.952-2.88h-3.528
			c-3.745,0-5.329,0.432-6.409,1.944c-0.936,1.224-1.728,3.24-2.521,6.481l-2.016-0.216c0.36-4.248,0.72-9.505,0.864-10.729h29.45
			v2.088c-6.12,0.504-6.912,0.792-6.912,6.984v10.297c2.592-0.36,5.04-0.432,7.416-0.432c11.306,0,16.562,5.112,16.562,13.033
			c0,5.833-2.521,9.577-6.696,11.953c-3.528,2.016-8.064,2.88-13.897,2.88H648.604z M660.774,198.496
			c0,5.761,1.512,6.913,6.264,6.913c5.833-0.072,10.802-2.736,10.802-11.593c0-7.849-4.393-11.089-12.17-11.089
			c-1.8,0-3.24,0.072-4.896,0.36V198.496z"/>
	</g>
</g>
</svg>
